ffmpeg started on 2016-12-12 at 03:50:27
Report written to "Output/theora/results/ffmpeg/Tsintel3500k.log"
Command line:
Tools/ffmpeg/ffmpeg -i Output/theora/encoded/sintel3500k.mkv -c:v rawvideo -pix_fmt yuv420p Output/theora/transcoded/sintel3500k.yuv
ffmpeg version N-82227-gdb23fde Copyright (c) 2000-2016 the FFmpeg developers
  built with gcc 5.4.0 (Ubuntu 5.4.0-6ubuntu1~16.04.2) 20160609
  configuration: --prefix=/home/jaroslav/ffmpeg_build --pkg-config-flags=--static --extra-cflags=-I/home/jaroslav/ffmpeg_build/include --extra-ldflags=-L/home/jaroslav/ffmpeg_build/lib --bindir=/home/jaroslav/bin --enable-gpl --enable-libass --enable-libfdk-aac --enable-libfreetype --enable-libmp3lame --enable-libopus --enable-libtheora --enable-libvorbis --enable-libvpx --enable-libx264 --enable-libx265 --enable-nvenc --enable-libmfx --enable-libxvid --enable-libgsm --enable-libopencore-amrnb --enable-version3 --enable-nonfree
  libavutil      55. 35.100 / 55. 35.100
  libavcodec     57. 66.101 / 57. 66.101
  libavformat    57. 57.100 / 57. 57.100
  libavdevice    57.  2.100 / 57.  2.100
  libavfilter     6. 66.100 /  6. 66.100
  libswscale      4.  3.100 /  4.  3.100
  libswresample   2.  4.100 /  2.  4.100
  libpostproc    54.  2.100 / 54.  2.100
Input #0, matroska,webm, from 'Output/theora/encoded/sintel3500k.mkv':
  Metadata:
    ENCODER         : Lavf57.57.100
  Duration: 00:00:20.83, start: 0.000000, bitrate: 3808 kb/s
    Stream #0:0: Video: theora, yuv420p(progressive), 4096x1744 [SAR 1:1 DAR 256:109], 24 fps, 24 tbr, 1k tbn, 24 tbc (default)
    Metadata:
      ENCODER         : Lavc57.66.101 libtheora
      DURATION        : 00:00:20.834000000
Output #0, rawvideo, to 'Output/theora/transcoded/sintel3500k.yuv':
  Metadata:
    encoder         : Lavf57.57.100
    Stream #0:0: Video: rawvideo (I420 / 0x30323449), yuv420p, 4096x1744 [SAR 1:1 DAR 256:109], q=2-31, 200 kb/s, 24 fps, 24 tbn, 24 tbc (default)
    Metadata:
      DURATION        : 00:00:20.834000000
      encoder         : Lavc57.66.101 rawvideo
Stream mapping:
  Stream #0:0 -> #0:0 (theora (native) -> rawvideo (native))
Press [q] to stop, [?] for help
frame=   21 fps=0.0 q=-0.0 size=  219744kB time=00:00:00.87 bitrate=2057306.1kbits/s speed=1.67x    frame=   42 fps= 40 q=-0.0 size=  439488kB time=00:00:01.75 bitrate=2057306.1kbits/s speed=1.68x    frame=   64 fps= 41 q=-0.0 size=  669696kB time=00:00:02.66 bitrate=2057305.9kbits/s dup=6 drop=0 speed=1.71x    frame=   86 fps= 41 q=-0.0 size=  899904kB time=00:00:03.58 bitrate=2057306.3kbits/s dup=14 drop=0 speed=1.71x    frame=  107 fps= 41 q=-0.0 size= 1119648kB time=00:00:04.45 bitrate=2057306.3kbits/s dup=23 drop=0 speed=1.71x    frame=  129 fps= 41 q=-0.0 size= 1349856kB time=00:00:05.37 bitrate=2057306.1kbits/s dup=34 drop=0 speed=1.71x    frame=  152 fps= 41 q=-0.0 size= 1590528kB time=00:00:06.33 bitrate=2057306.2kbits/s dup=49 drop=0 speed=1.71x    frame=  174 fps= 41 q=-0.0 size= 1820736kB time=00:00:07.25 bitrate=2057306.1kbits/s dup=60 drop=0 speed=1.71x    frame=  194 fps= 41 q=-0.0 size= 2030016kB time=00:00:08.08 bitrate=2057306.2kbits/s dup=69 drop=0 speed= 1.7x    frame=  218 fps= 41 q=-0.0 size= 2281152kB time=00:00:09.08 bitrate=2057306.2kbits/s dup=82 drop=0 speed=1.71x    frame=  241 fps= 41 q=-0.0 size= 2521824kB time=00:00:10.04 bitrate=2057306.0kbits/s dup=95 drop=0 speed=1.72x    frame=  264 fps= 41 q=-0.0 size= 2762496kB time=00:00:11.00 bitrate=2057306.1kbits/s dup=109 drop=0 speed= 1.7x    frame=  287 fps= 41 q=-0.0 size= 3003168kB time=00:00:11.95 bitrate=2057306.2kbits/s dup=119 drop=0 speed= 1.7x    frame=  309 fps= 41 q=-0.0 size= 3233376kB time=00:00:12.87 bitrate=2057306.1kbits/s dup=124 drop=0 speed=1.69x    frame=  327 fps= 40 q=-0.0 size= 3421728kB time=00:00:13.62 bitrate=2057306.1kbits/s dup=125 drop=0 speed=1.68x    frame=  345 fps= 40 q=-0.0 size= 3610080kB time=00:00:14.37 bitrate=2057306.1kbits/s dup=127 drop=0 speed=1.66x    frame=  357 fps= 39 q=-0.0 size= 3735648kB time=00:00:14.87 bitrate=2057306.1kbits/s dup=127 drop=0 speed=1.63x    frame=  374 fps= 39 q=-0.0 size= 3913536kB time=00:00:15.58 bitrate=2057306.2kbits/s dup=127 drop=0 speed=1.61x    frame=  391 fps= 38 q=-0.0 size= 4091424kB time=00:00:16.29 bitrate=2057306.1kbits/s dup=127 drop=0 speed= 1.6x    frame=  408 fps= 38 q=-0.0 size= 4269312kB time=00:00:17.00 bitrate=2057306.1kbits/s dup=129 drop=0 speed=1.59x    frame=  429 fps= 38 q=-0.0 size= 4489056kB time=00:00:17.87 bitrate=2057306.1kbits/s dup=135 drop=0 speed=1.59x    frame=  447 fps= 38 q=-0.0 size= 4677408kB time=00:00:18.62 bitrate=2057306.1kbits/s dup=139 drop=0 speed=1.59x    frame=  464 fps= 38 q=-0.0 size= 4855296kB time=00:00:19.33 bitrate=2057306.1kbits/s dup=139 drop=0 speed=1.58x    frame=  475 fps= 37 q=-0.0 size= 4970400kB time=00:00:19.79 bitrate=2057306.1kbits/s dup=139 drop=0 speed=1.55x    frame=  492 fps= 37 q=-0.0 size= 5148288kB time=00:00:20.50 bitrate=2057306.1kbits/s dup=140 drop=0 speed=1.54x    frame=  500 fps= 37 q=-0.0 Lsize= 5232000kB time=00:00:20.83 bitrate=2057306.1kbits/s dup=140 drop=0 speed=1.53x    
video:5232000kB audio:0kB subtitle:0kB other streams:0kB global headers:0kB muxing overhead: 0.000000%
